<?xml version="1.0" ?><!DOCTYPE svg  PUBLIC '-//W3C//DTD SVG 1.1//EN'  'http://www.w3.org/Graphics/SVG/1.1/DTD/svg11.dtd'><svg enable-background="new 0 0 512 512" height="512px" id="Layer_1" version="1.1" viewBox="0 0 512 512" width="512px" xml:space="preserve" xmlns="http://www.w3.org/2000/svg" xmlns:xlink="http://www.w3.org/1999/xlink"><g><path d="M510.689,478.854c0,17.561-14.275,31.836-31.836,31.836H33.146c-17.56,0-31.836-14.275-31.836-31.836   V33.146c0-17.56,14.276-31.836,31.836-31.836h445.707c17.561,0,31.836,14.276,31.836,31.836V478.854z" fill="#F99D1C"/></g><g><g><path d="M440.364,149.986c-5.311-11.237-11.772-19.939-18.928-23.552c-4.148-2.211-9.559-4.029-15.896-5.455    c3.82,8.739,7.406,18.914,10.148,29.784C423.986,150.308,432.262,150.054,440.364,149.986z" fill="#B777B2"/><path clip-rule="evenodd" d="M390.114,268.78c-13.905,8.307-38.17,18.108-65.59,26.564    c-8.287,2.564-16.868,5.002-25.537,7.232c9.124,0.659,19.09,0.162,29.438-1.239c32.639-4.437,68.974-17.921,93.914-32.93    C411.625,268.938,400.647,269.043,390.114,268.78z" fill="#007F81" fill-rule="evenodd"/><path d="M448.542,246.783c12.176-16.833,6.278-66.212-8.178-96.797c-8.103,0.067-16.378,0.321-24.675,0.777    c7.767,30.703,8.819,66.887-10.47,91.623c-0.396,7.783-1.617,13.915-3.76,17.211c-1.743,2.687-5.699,5.812-11.346,9.183    c10.533,0.263,21.511,0.157,32.225-0.372C434.193,261.271,443.468,253.801,448.542,246.783z" fill="#ED1C24"/><path d="M307.558,259.429c-20.133,0.889-41.491,0.91-62.124-0.335c6.493,16.015,14.912,29.163,24.671,35.397    c7.732,4.744,17.668,7.28,28.883,8.086c8.669-2.23,17.25-4.668,25.537-7.232C317.92,284.627,312.131,272.19,307.558,259.429z" fill="#51BF9D"/><path d="M327.611,258.235c-6.49,0.49-13.198,0.889-20.054,1.193c4.573,12.762,10.362,25.198,16.967,35.916    c27.42-8.456,51.685-18.258,65.59-26.564c-29.548-0.74-55.46-4.371-61.502-9.618C328.272,258.866,327.946,258.548,327.611,258.235    z" fill="#00AAAE"/><path d="M401.46,259.598c2.143-3.296,3.363-9.428,3.76-17.211c-0.147,0.192-0.276,0.38-0.429,0.567    c-4.69,5.883-36.663,12.234-77.18,15.281c0.335,0.312,0.661,0.631,1.001,0.927c6.042,5.247,31.954,8.878,61.502,9.618    C395.761,265.41,399.717,262.284,401.46,259.598z" fill="#C4161C"/><path d="M405.541,120.979c-27.917-6.285-73.985-4.98-111.293,3.465c-13.179,2.986-25.269,6.862-35.077,11.607    c11.511-0.849,23.402-1.201,35.101-1.083c33.389,0.333,65.255,4.518,82.423,12.126c2.681,1.192,5.212,3.372,7.579,6.317    c10.245-1.187,20.831-2.074,31.416-2.648C412.947,139.894,409.361,129.719,405.541,120.979z" fill="#A654A1"/><path d="M299.331,185c-3.027-17.525-4.699-35.243-5.06-50.031c-11.698-0.118-23.59,0.234-35.101,1.083    c-9.124,4.419-16.262,9.599-20.464,15.514c-12.92,18.242-8.244,70.56,6.727,107.528c20.633,1.245,41.991,1.224,62.124,0.335    C297.419,231.127,293.24,201.239,299.331,185z" fill="#D7DF23"/><path d="M384.273,153.412c-2.367-2.945-4.898-5.125-7.579-6.317c-17.168-7.608-49.034-11.793-82.423-12.126    c0.36,14.788,2.032,32.506,5.06,50.031c1.022-2.719,2.328-5.065,3.94-6.948C313.551,166.168,346.565,157.769,384.273,153.412z" fill="#A6CE39"/><path d="M299.331,185c-6.091,16.239-1.912,46.127,8.227,74.429c6.855-0.305,13.563-0.703,20.054-1.193    C313.968,245.354,304.598,215.476,299.331,185z" fill="#5FBB46"/><path clip-rule="evenodd" d="M419.013,166.915c-0.872-5.488-1.992-10.901-3.323-16.151    c-10.585,0.574-21.171,1.462-31.416,2.648c4.296,5.346,8.034,13.242,11.126,22.371c6.171-3.643,11.881-6.407,16.721-8.044    C414.131,167.061,416.444,166.802,419.013,166.915z" fill="#A30D11" fill-rule="evenodd"/><path clip-rule="evenodd" d="M405.22,242.387c15.989-20.503,17.995-48.877,13.793-75.472    c-2.568-0.113-4.882,0.146-6.893,0.824c-4.84,1.637-10.55,4.401-16.721,8.044C402.482,196.684,406.146,224.082,405.22,242.387z" fill="#A30D11" fill-rule="evenodd"/></g><g><path d="M113.444,363.866c-0.519,18.015,12.492,22.158,18.669,22.158c6.315,0,12.231-3.497,16.101-6.218    c2.059-1.559,2.317-1.814,3.09-1.814c1.032,0,1.161,4.922,1.161,5.571c0,1.94-2.836,3.762-4.765,5.058    c-7.986,5.178-14.426,5.958-18.803,5.958c-16.23,0-28.205-13.219-28.205-27.604c0-14.124,11.721-29.804,31.295-29.804    c2.707,0,14.162,0.127,19.316,11.143c2.059,4.537,2.448,8.943,2.448,11.273c0,3.889-0.39,4.542-5.149,4.542    c-3.221,0-17.258-0.263-20.094-0.263H113.444z M131.211,343.401c-1.546,0-12.357,0.895-16.48,13.594    c3.604,0.133,25.239-0.127,28.717-0.387C143.323,354.276,142.546,343.401,131.211,343.401z" fill="#FFFFFF"/><path d="M175.346,347.667c1.799-3.239,3.22-5.574,7.463-7.65c3.604-1.683,8.115-2.459,10.174-2.459    c1.295,0,1.8,0,1.8,5.834c0,2.981-0.639,3.11-7.333,4.401c-10.559,1.945-10.943,7.779-11.326,11.925    c-0.644,8.297-0.777,13.608-0.902,27.343c-0.134,4.669-0.134,5.187-1.805,5.446c-1.031,0.261-4.641,0.261-5.663,0.261    c-4.127,0-4.766,0-4.766-3.373c0-14.901,0.902-47.69,1.156-48.981c0.264-1.043,0.644-1.043,3.734-1.043    c0.897,0,5.02-0.261,5.797-0.261c1.671,0,1.671,1.165,1.671,3.631V347.667z" fill="#FFFFFF"/><path d="M213.004,347.667c1.805-3.239,3.221-5.574,7.472-7.65c3.605-1.683,8.111-2.459,10.175-2.459    c1.285,0,1.8,0,1.8,5.834c0,2.981-0.644,3.11-7.338,4.401c-10.562,1.945-10.947,7.779-11.336,11.925    c-0.643,8.297-0.772,13.608-0.897,27.343c-0.134,4.669-0.134,5.187-1.804,5.446c-1.032,0.261-4.636,0.261-5.668,0.261    c-4.122,0-4.766,0-4.766-3.373c0-14.901,0.902-47.69,1.162-48.981c0.259-1.043,0.643-1.043,3.733-1.043    c0.902,0,5.021-0.261,5.797-0.261c1.67,0,1.67,1.165,1.67,3.631V347.667z" fill="#FFFFFF"/><path d="M249.266,344.779c-2.296,0.107-5.798,1.106-7.142,1.378c-1.331,0.263-2.438-0.459-2.971-1.605    c-0.651-1.401-0.719-2.404-0.75-3.415c-0.031-1.134,0.451-2.048,1.997-2.602c1.754-0.628,7.355-1.155,10.312-1.237    c11.004-0.291,17.794,2.732,22.045,7.95c4.163,5.095,5.386,10.303,5.278,22.805c-0.03,4.282-0.223,11.339-0.656,17.665    c-0.139,1.98-0.424,3.302-2.881,3.22c-1.825-0.063-3.832,0.03-5.262,0.03c-1.477,0-2.852,1.205-6.136,2.616    c-5.069,2.175-9.888,3.436-15.052,3.37c-5.989-0.08-9.454-1.212-12.862-4.35c-3.667-3.371-4.552-7.962-4.256-11.764    c0.781-9.936,10.204-14.791,18.963-16.652c4.673-0.994,11.806-1.732,16.348-1.634C265.83,349.176,259.27,344.311,249.266,344.779z     M243.254,379.087c-0.232,5.771,2.438,8.859,8.9,8.925c5.146,0.047,10.219-2.602,13.23-4.284    c0.621-5.267,0.978-11.311,0.829-17.022C253.405,367.27,243.566,371.587,243.254,379.087z" fill="#FFFFFF"/><path d="M99.541,387.968c-0.161-1.048-0.527-2.188-0.965-3.134c-0.362-0.812-1.005-0.738-2.054-0.197    c-1.934,0.999-4.623,2.397-8.66,2.449c-8.606,0.099-10.76-6.059-10.96-16.514c-0.13-6.474,0.455-14.355,1.085-22.423    c7.098-0.248,14.18-0.459,17.418-0.502c0.791-0.007,1.519-0.438,1.607-1.713c0.059-0.951,0.148-3.152,0.139-4.317    c-0.008-1.689-0.156-2.315-1.652-2.306c-2.653,0-9.682,0.354-16.823,0.766c0.424-4.321,1.021-10.312,1.08-11.92    c0.058-1.683-0.33-2.526-2.613-2.143c-0.856,0.148-4.899,1.156-7.253,1.983c-2.416,0.849-2.71,1.376-3.041,5.585    c-0.17,2.061-0.424,4.525-0.71,7.268c-2.742,0.179-4.864,0.328-5.855,0.413c-1.541,0.122-2.376,0.26-2.72,1.638    c-0.264,1.016-0.652,2.769-0.679,4.163c-0.022,1.155,0.474,1.989,2.434,1.858c1.095-0.08,3.247-0.178,5.989-0.298    c-0.724,6.973-1.385,14.595-1.362,21.099c0.063,15.558,5.695,24.007,18.114,24.851c7.514,0.509,13.351-2.18,16.039-4.11    C99.21,389.669,99.701,388.973,99.541,387.968z" fill="#FFFFFF"/></g></g></svg>